<?xml version="1.0" encoding="utf-8"?>
<!-- Svg Vector Icons : http://www.onlinewebfonts.com/icon -->
<!DOCTYPE svg PUBLIC "-//W3C//DTD SVG 1.1//EN" "http://www.w3.org/Graphics/SVG/1.1/DTD/svg11.dtd">
<svg version="1.1" xmlns="http://www.w3.org/2000/svg" xmlns:xlink="http://www.w3.org/1999/xlink" x="0px" y="0px" viewBox="0 0 1000 1000" enable-background="new 0 0 1000 1000" xml:space="preserve">
<metadata> Svg Vector Icons : http://www.onlinewebfonts.com/icon </metadata>
<g><g transform="translate(0.000000,511.000000) scale(0.100000,-0.100000)"><path d="M1211.4,3034.8c-56.9-25.9-139.6-87.9-186.2-134.5c-170.7-181-162.9-54.3-162.9-2474.9v-2193l67.2-137.1c69.8-139.6,232.7-274.1,367.2-300c196.5-41.4,186.2-33.6,186.2-142.2v-100.9l-633.6-7.8c-612.9-7.8-633.6-10.4-690.5-64.6c-80.2-80.2-77.6-230.2,2.6-294.8c56.9-46.6,209.5-49.1,4838.6-49.1s4781.7,2.6,4838.6,49.1c80.2,64.6,82.8,214.7,2.6,294.8c-56.9,54.3-77.6,56.9-690.5,64.6l-633.6,7.8v100.9c0,100.8,28.4,129.3,131.9,129.3c72.4,0,250.9,95.7,328.4,175.8c33.6,38.8,85.3,116.4,111.2,173.3c46.6,98.3,49.1,219.8,49.1,2301.6c0,2087-2.6,2203.3-49.1,2301.6c-25.9,56.9-87.9,139.6-134.5,186.2c-186.2,175.8,103.4,162.9-3959.3,162.9C1464.8,3083.9,1309.7,3081.3,1211.4,3034.8z M8672.2,2618.4c51.7-51.7,51.7-85.3,51.7-2193v-2143.9l-54.3-49.1c-54.3-46.6-150-49.1-3669.7-49.1c-3519.7,0-3615.3,2.6-3669.7,49.1l-54.3,49.1V417.6c0,1893,5.2,2143.9,41.4,2195.6l38.8,56.9h3633.4C8586.9,2670.1,8620.5,2670.1,8672.2,2618.4z M8103.3-2346.9v-103.4H5000H1896.7v103.4v103.4H5000h3103.3V-2346.9z"/></g></g>
</svg>